<?xml version="1.0" encoding="utf-8"?>
<!DOCTYPE svg PUBLIC "-//W3C//DTD SVG 1.1//EN" "http://www.w3.org/Graphics/SVG/1.1/DTD/svg11.dtd">
<svg version="1.1" id="图形" xmlns="http://www.w3.org/2000/svg" xmlns:xlink="http://www.w3.org/1999/xlink" x="0px" y="0px" width="1024px" height="1024px" viewBox="0 0 1024 1024" enable-background="new 0 0 1024 1024" xml:space="preserve">
  <path fill="#272636" d="M513.032 498.093c-115.572 0-209.574-94.055-209.574-209.622s94.002-209.622 209.574-209.622c115.629 0 209.687 94.055 209.687 209.622s-94.057 209.622-209.687 209.622zM513.032 104.765c-101.267 0-183.655 82.413-183.655 183.705 0 101.263 82.388 183.676 183.655 183.676 101.326 0 183.712-82.413 183.712-183.676 0.001-101.292-82.387-183.705-183.712-183.705zM243.157 288.814c0 7.152-5.836 12.93-12.93 12.93h-0.057l-103.728-0.287c-7.151 0-12.93-5.836-12.93-13.015 0-7.151 5.836-12.958 12.987-12.958 0 0 0 0 0.057 0l103.671 0.315c7.207 0.027 12.985 5.864 12.929 13.014zM513.032 559.536c7.152 0 12.987 5.836 12.987 12.987v103.639c0 7.151-5.835 12.958-12.987 12.958-7.151 0-12.987-5.807-12.987-12.958v-103.638c-0-7.151 5.836-12.988 12.987-12.988zM762.312 410.045c2.059 0 4.119 0.457 6.064 1.545l91.428 48.915c6.35 3.375 8.696 11.271 5.378 17.564-3.432 6.322-11.271 8.725-17.622 5.321l-91.428-48.945c-6.293-3.404-8.696-11.242-5.32-17.592 2.347-4.349 6.808-6.809 11.5-6.809zM654.979 519.175c2.175-1.316 4.52-1.945 6.808-1.945 4.348 0 8.639 2.175 11.042 6.15l54.582 88.106c3.776 6.094 1.888 14.103-4.235 17.85-6.064 3.776-14.074 1.917-17.85-4.205l-54.581-88.077c-3.718-6.122-1.83-14.103 4.234-17.878zM257.575 167.555l-91.485-48.944c-6.351-3.433-8.696-11.272-5.32-17.564 2.346-4.405 6.808-6.865 11.443-6.865 2.060 0 4.176 0.515 6.122 1.545l91.427 48.915c6.351 3.376 8.696 11.271 5.321 17.593-3.376 6.292-11.215 8.666-17.507 5.32zM674.032 57.050c-3.776 6.065-11.787 7.952-17.85 4.119-6.122-3.775-7.952-11.785-4.119-17.85l54.982-87.99c2.46-3.891 6.694-6.064 10.985-6.064 2.346 0 4.749 0.628 6.866 1.944 6.064 3.833 7.895 11.786 4.119 17.907l-54.982 87.934zM271.077 437.076l-91.027 49.774c-6.293 3.432-14.189 1.115-17.622-5.178s-1.087-14.159 5.207-17.621l91.027-49.745c1.944-1.058 4.062-1.573 6.236-1.573 4.577 0 8.982 2.431 11.328 6.751 3.432 6.265 1.144 14.161-5.149 17.593zM513.032 20.379c-7.151 0-12.987-5.778-12.987-12.986v-103.668c0-7.094 5.836-12.929 12.987-12.929 7.152 0 12.987 5.836 12.987 12.929v103.667c0.001 7.208-5.834 12.987-12.987 12.987zM858.545 115.978l-91.027 49.775c-6.293 3.432-14.189 1.143-17.622-5.149s-1.088-14.188 5.207-17.621l91.027-49.775c1.944-1.029 4.063-1.6 6.179-1.6 4.634 0 9.039 2.516 11.385 6.807 3.434 6.236 1.146 14.132-5.148 17.564zM352.091 522.979c2.46-3.919 6.694-6.093 11.042-6.093 2.346 0 4.692 0.629 6.866 1.974 6.065 3.805 7.896 11.814 4.119 17.878l-54.982 87.962c-3.833 6.064-11.786 7.923-17.908 4.119-6.065-3.805-7.952-11.814-4.119-17.85l54.982-87.991zM371.085 60.77c-6.064 3.719-14.074 1.888-17.85-4.177l-54.524-88.162c-3.776-6.064-1.888-14.074 4.176-17.85 2.175-1.315 4.52-1.944 6.808-1.944 4.406 0 8.639 2.174 11.042 6.121l54.581 88.162c3.777 6.064 1.889 14.074-4.234 17.85zM899.453 303.66h-0.058l-103.67-0.314c-7.209 0-12.987-5.836-12.931-12.987 0-7.181 5.835-12.958 12.931-12.958 0.057 0 0.057 0 0.057 0l103.728 0.315c7.151 0.028 12.931 5.835 12.931 12.987s-5.836 12.957-12.987 12.957z" transform="translate(0, 812) scale(1, -1)"/>
</svg>
