<!-- <?xml-stylesheet type="text/css" href="/css/style.css"?> -->

<svg style="position: absolute; width: 0; height: 0;" width="0" height="0" version="1.1" xmlns="http://www.w3.org/2000/svg" xmlns:xlink="http://www.w3.org/1999/xlink">
<defs>

<!-- 	<style type="text/css">
	.path1{
		fill:#ffebc8;
		stroke:blue;
		stroke-width:3
		}
	.path2{
		fill:green;
		stroke:blue;
		stroke-width:3
	}
	.path3{
		fill:green;
		stroke:blue;
		stroke-width:3
	}
	</style> -->

<symbol id="icon-home" viewBox="0 0 16 16">
<title>home</title>
<path class="path1" d="M16 9.226l-8-6.21-8 6.21v-2.532l8-6.21 8 6.21zM14 9v6h-4v-4h-4v4h-4v-6l6-4.5z"></path>
</symbol>
<symbol id="icon-pen" viewBox="0 0 16 16">
<title>pen</title>
<path class="path1" d="M15.909 4.561l-4.47-4.47c-0.146-0.146-0.338-0.113-0.427 0.073l-0.599 1.248 4.175 4.175 1.248-0.599c0.186-0.089 0.219-0.282 0.073-0.427z"></path>
<path class="path2" d="M9.615 2.115l-4.115 0.343c-0.273 0.034-0.501 0.092-0.58 0.449-0 0-0 0.001-0 0.001-1.116 5.36-4.92 10.591-4.92 10.591l0.896 0.896 4.25-4.25c-0.094-0.196-0.146-0.415-0.146-0.647 0-0.828 0.672-1.5 1.5-1.5s1.5 0.672 1.5 1.5-0.672 1.5-1.5 1.5c-0.232 0-0.451-0.053-0.647-0.146l-4.25 4.25 0.896 0.896c0 0 5.231-3.804 10.591-4.92 0-0 0.001-0 0.001-0 0.357-0.078 0.415-0.306 0.449-0.58l0.343-4.115-4.269-4.269z"></path>
</symbol>
<symbol id="icon-images" viewBox="0 0 18 16">
<title>images</title>
<path class="path1" d="M17 2h-1v-1c0-0.55-0.45-1-1-1h-14c-0.55 0-1 0.45-1 1v12c0 0.55 0.45 1 1 1h1v1c0 0.55 0.45 1 1 1h14c0.55 0 1-0.45 1-1v-12c0-0.55-0.45-1-1-1zM2 3v10h-0.998c-0.001-0.001-0.001-0.001-0.002-0.002v-11.996c0.001-0.001 0.001-0.001 0.002-0.002h13.996c0.001 0.001 0.001 0.001 0.002 0.002v0.998h-12c-0.55 0-1 0.45-1 1v0zM17 14.998c-0.001 0.001-0.001 0.001-0.002 0.002h-13.996c-0.001-0.001-0.001-0.001-0.002-0.002v-11.996c0.001-0.001 0.001-0.001 0.002-0.002h13.996c0.001 0.001 0.001 0.001 0.002 0.002v11.996z"></path>
<path class="path2" style="fill:green" d="M15 5.5c0 0.828-0.672 1.5-1.5 1.5s-1.5-0.672-1.5-1.5 0.672-1.5 1.5-1.5 1.5 0.672 1.5 1.5z"></path>
<path class="path3" d="M16 14h-12v-2l3.5-6 4 5h1l3.5-3z"></path>
</symbol>
<symbol id="icon-library" viewBox="0 0 17 16">
<title>library</title>
<path class="path1" d="M16 15v-1h-1v-6h1v-1h-3v1h1v6h-3v-6h1v-1h-3v1h1v6h-3v-6h1v-1h-3v1h1v6h-3v-6h1v-1h-3v1h1v6h-1v1h-1v1h17v-1h-1z"></path>
<path class="path2" d="M8 0h1l8 5v1h-17v-1l8-5z"></path>
</symbol>
<symbol id="icon-file-text2" viewBox="0 0 16 16">
<title>file-text2</title>
<path class="path1" d="M14.341 3.579c-0.347-0.473-0.831-1.027-1.362-1.558s-1.085-1.015-1.558-1.362c-0.806-0.591-1.197-0.659-1.421-0.659h-7.75c-0.689 0-1.25 0.561-1.25 1.25v13.5c0 0.689 0.561 1.25 1.25 1.25h11.5c0.689 0 1.25-0.561 1.25-1.25v-9.75c0-0.224-0.068-0.615-0.659-1.421zM12.271 2.729c0.48 0.48 0.856 0.912 1.134 1.271h-2.406v-2.405c0.359 0.278 0.792 0.654 1.271 1.134zM14 14.75c0 0.136-0.114 0.25-0.25 0.25h-11.5c-0.135 0-0.25-0.114-0.25-0.25v-13.5c0-0.135 0.115-0.25 0.25-0.25 0 0 7.749-0 7.75 0v3.5c0 0.276 0.224 0.5 0.5 0.5h3.5v9.75z"></path>
<path class="path2" d="M11.5 13h-7c-0.276 0-0.5-0.224-0.5-0.5s0.224-0.5 0.5-0.5h7c0.276 0 0.5 0.224 0.5 0.5s-0.224 0.5-0.5 0.5z"></path>
<path class="path3" d="M11.5 11h-7c-0.276 0-0.5-0.224-0.5-0.5s0.224-0.5 0.5-0.5h7c0.276 0 0.5 0.224 0.5 0.5s-0.224 0.5-0.5 0.5z"></path>
<path class="path4" d="M11.5 9h-7c-0.276 0-0.5-0.224-0.5-0.5s0.224-0.5 0.5-0.5h7c0.276 0 0.5 0.224 0.5 0.5s-0.224 0.5-0.5 0.5z"></path>
</symbol>
<symbol id="icon-qrcode" viewBox="0 0 16 16">
<title>qrcode</title>
<path class="path1" d="M5 1h-4v4h4v-4zM6 0v0 6h-6v-6h6zM2 2h2v2h-2zM15 1h-4v4h4v-4zM16 0v0 6h-6v-6h6zM12 2h2v2h-2zM5 11h-4v4h4v-4zM6 10v0 6h-6v-6h6zM2 12h2v2h-2zM7 0h1v1h-1zM8 1h1v1h-1zM7 2h1v1h-1zM8 3h1v1h-1zM7 4h1v1h-1zM8 5h1v1h-1zM7 6h1v1h-1zM7 8h1v1h-1zM8 9h1v1h-1zM7 10h1v1h-1zM8 11h1v1h-1zM7 12h1v1h-1zM8 13h1v1h-1zM7 14h1v1h-1zM8 15h1v1h-1zM15 8h1v1h-1zM1 8h1v1h-1zM2 7h1v1h-1zM0 7h1v1h-1zM4 7h1v1h-1zM5 8h1v1h-1zM6 7h1v1h-1zM9 8h1v1h-1zM10 7h1v1h-1zM11 8h1v1h-1zM12 7h1v1h-1zM13 8h1v1h-1zM14 7h1v1h-1zM15 10h1v1h-1zM9 10h1v1h-1zM10 9h1v1h-1zM11 10h1v1h-1zM13 10h1v1h-1zM14 9h1v1h-1zM15 12h1v1h-1zM9 12h1v1h-1zM10 11h1v1h-1zM12 11h1v1h-1zM13 12h1v1h-1zM14 11h1v1h-1zM15 14h1v1h-1zM10 13h1v1h-1zM11 14h1v1h-1zM12 13h1v1h-1zM13 14h1v1h-1zM10 15h1v1h-1zM12 15h1v1h-1zM14 15h1v1h-1z"></path>
</symbol>
<symbol id="icon-coin-dollar" viewBox="0 0 16 16">
<title>coin-dollar</title>
<path class="path1" d="M7.5 1c-4.142 0-7.5 3.358-7.5 7.5s3.358 7.5 7.5 7.5c4.142 0 7.5-3.358 7.5-7.5s-3.358-7.5-7.5-7.5zM7.5 14.5c-3.314 0-6-2.686-6-6s2.686-6 6-6c3.314 0 6 2.686 6 6s-2.686 6-6 6zM8 8v-2h2v-1h-2v-1h-1v1h-2v4h2v2h-2v1h2v1h1v-1h2l-0-4h-2zM7 8h-1v-2h1v2zM9 11h-1v-2h1v2z"></path>
</symbol>
<symbol id="icon-coin-yen" viewBox="0 0 16 16">
<title>coin-yen</title>
<path class="path1" d="M7.5 1c-4.142 0-7.5 3.358-7.5 7.5s3.358 7.5 7.5 7.5c4.142 0 7.5-3.358 7.5-7.5s-3.358-7.5-7.5-7.5zM7.5 14.5c-3.314 0-6-2.686-6-6s2.686-6 6-6c3.314 0 6 2.686 6 6s-2.686 6-6 6z"></path>
<path class="path2" d="M9.5 9c0.276 0 0.5-0.224 0.5-0.5s-0.224-0.5-0.5-0.5h-1.066l1.482-2.223c0.153-0.23 0.091-0.54-0.139-0.693s-0.54-0.091-0.693 0.139l-1.584 2.376-1.584-2.376c-0.153-0.23-0.464-0.292-0.693-0.139s-0.292 0.464-0.139 0.693l1.482 2.223h-1.066c-0.276 0-0.5 0.224-0.5 0.5s0.224 0.5 0.5 0.5h1.5v1h-1.5c-0.276 0-0.5 0.224-0.5 0.5s0.224 0.5 0.5 0.5h1.5v1.5c0 0.276 0.224 0.5 0.5 0.5s0.5-0.224 0.5-0.5v-1.5h1.5c0.276 0 0.5-0.224 0.5-0.5s-0.224-0.5-0.5-0.5h-1.5v-1h1.5z"></path>
</symbol>
<symbol id="icon-location2" viewBox="0 0 16 16">
<title>location2</title>
<path class="path1" d="M8 0c-2.761 0-5 2.239-5 5 0 5 5 11 5 11s5-6 5-11c0-2.761-2.239-5-5-5zM8 8.063c-1.691 0-3.063-1.371-3.063-3.063s1.371-3.063 3.063-3.063 3.063 1.371 3.063 3.063-1.371 3.063-3.063 3.063zM6.063 5c0-1.070 0.867-1.938 1.938-1.938s1.938 0.867 1.938 1.938c0 1.070-0.867 1.938-1.938 1.938s-1.938-0.867-1.938-1.938z"></path>
</symbol>
<symbol id="icon-neutral" viewBox="0 0 16 16">
<title>neutral</title>
<path class="path1" d="M8 16c4.418 0 8-3.582 8-8s-3.582-8-8-8-8 3.582-8 8 3.582 8 8 8zM8 1.5c3.59 0 6.5 2.91 6.5 6.5s-2.91 6.5-6.5 6.5-6.5-2.91-6.5-6.5 2.91-6.5 6.5-6.5zM4 5c0 0.552 0.448 1 1 1s1-0.448 1-1-0.448-1-1-1-1 0.448-1 1zM10 5c0 0.552 0.448 1 1 1s1-0.448 1-1-0.448-1-1-1-1 0.448-1 1zM6 11h4v1h-4v-1z"></path>
</symbol>
<symbol id="icon-warning" viewBox="0 0 16 16">
<title>warning</title>
<path class="path1" d="M8 1.45l6.705 13.363h-13.409l6.705-13.363zM8 0c-0.345 0-0.69 0.233-0.951 0.698l-6.829 13.611c-0.523 0.93-0.078 1.691 0.989 1.691h13.583c1.067 0 1.512-0.761 0.989-1.691h0l-6.829-13.611c-0.262-0.465-0.606-0.698-0.951-0.698v0z"></path>
<path class="path2" d="M9 13c0 0.552-0.448 1-1 1s-1-0.448-1-1c0-0.552 0.448-1 1-1s1 0.448 1 1z"></path>
<path class="path3" d="M8 11c-0.552 0-1-0.448-1-1v-3c0-0.552 0.448-1 1-1s1 0.448 1 1v3c0 0.552-0.448 1-1 1z"></path>
</symbol>
<symbol id="icon-next" viewBox="0 0 16 16">
<title>next</title>
<path class="path1" d="M8 0c4.418 0 8 3.582 8 8s-3.582 8-8 8-8-3.582-8-8 3.582-8 8-8zM8 14.5c3.59 0 6.5-2.91 6.5-6.5s-2.91-6.5-6.5-6.5-6.5 2.91-6.5 6.5 2.91 6.5 6.5 6.5z"></path>
<path class="path2" d="M9 8l-4-3v6z"></path>
<path class="path3" d="M11 5h-2v6h2v-6z"></path>
</symbol>
<symbol id="icon-play3" viewBox="0 0 16 16">
<title>play3</title>
<path class="path1" d="M3 2l10 6-10 6z"></path>
</symbol>
<symbol id="icon-table2" viewBox="0 0 16 16">
<title>table2</title>
<path class="path1" d="M0 1v14h16v-14h-16zM6 10v-3h4v3h-4zM10 11v3h-4v-3h4zM10 3v3h-4v-3h4zM5 3v3h-4v-3h4zM1 7h4v3h-4v-3zM11 7h4v3h-4v-3zM11 6v-3h4v3h-4zM1 11h4v3h-4v-3zM11 14v-3h4v3h-4z"></path>
</symbol>
</defs>
</svg>
